<svg version="1.1" viewBox="0.0 0.0 9600.0 9600.0" fill="none" stroke="none" stroke-linecap="square" stroke-miterlimit="10" xmlns:xlink="http://www.w3.org/1999/xlink" xmlns="http://www.w3.org/2000/svg"><clipPath id="p.0"><path d="m0 0l9600.0 0l0 9600.0l-9600.0 0l0 -9600.0z" clip-rule="nonzero"/></clipPath><g clip-path="url(#p.0)"><path fill="#000000" fill-opacity="0.0" d="m0 0l9600.0 0l0 9600.0l-9600.0 0z" fill-rule="evenodd"/><path fill="#000000" d="m0 0l9596.851 0l0 9612.599l-9596.851 0z" fill-rule="evenodd"/><path stroke="#000000" stroke-width="1.0" stroke-linejoin="round" stroke-linecap="butt" d="m0 0l9596.851 0l0 9612.599l-9596.851 0z" fill-rule="evenodd"/><path fill="#000000" fill-opacity="0.0" d="m2442.8818 -71.968506l4714.2363 0l0 9743.9375l-4714.2363 0z" fill-rule="evenodd"/><path fill="#ffffff" d="m3917.6787 3846.2346q-232.0 0 -429.20312 -100.53125q-197.1875 -100.53125 -320.92188 -286.14062l170.125 -193.32812q224.26562 332.53125 583.875 332.53125q502.65625 0 502.65625 -595.46875l0 -1639.4531l-989.8594 0l0 -247.46875l1272.125 0l0 1875.3281q0 425.32812 -199.14062 639.9375q-199.125 214.59375 -589.65625 214.59375z" fill-rule="nonzero"/><path fill="#ffffff" d="m5332.882 7067.1724q266.79688 58.0 411.79688 230.0625q145.0 172.0625 145.0 442.73438q0 348.0 -257.14062 535.53076q-257.125 187.53125 -759.7969 187.53125l-1245.0625 0l0 -2706.6558l1167.7344 0q452.39062 0 701.78125 181.73438q249.40625 181.73438 249.40625 514.2656q0 224.26562 -110.203125 380.85938q-110.1875 156.59375 -303.51562 233.9375zm-1419.0625 -1074.9375l0 982.1406l862.2656 0q328.65625 0 506.51562 -125.671875q177.875 -125.671875 177.875 -365.40625q0 -239.71875 -177.875 -365.39062q-177.85938 -125.671875 -506.51562 -125.671875l-862.2656 0zm955.0625 2234.937q363.46875 0 549.0625 -123.73389q185.59375 -123.734375 185.59375 -386.67188q0 -506.53125 -734.65625 -506.53125l-955.0625 0l0 1016.937l955.0625 0z" fill-rule="nonzero"/></g></svg>